<?xml version="1.0" encoding="UTF-8" standalone="no"?>
<!DOCTYPE svg PUBLIC "-//W3C//DTD SVG 1.1//EN" "http://www.w3.org/Graphics/SVG/1.1/DTD/svg11.dtd">
<svg width="100%" height="100%" viewBox="0 0 320 321" version="1.1" xmlns="http://www.w3.org/2000/svg" xmlns:xlink="http://www.w3.org/1999/xlink" xml:space="preserve" xmlns:serif="http://www.serif.com/" style="fill-rule:evenodd;clip-rule:evenodd;stroke-linejoin:round;stroke-miterlimit:2;">
    <g transform="matrix(0.133306,0,0,0.167457,-237.413,-180.028)">
        <rect x="1780.96" y="1075.07" width="2400.49" height="1910.93" style="fill:none;"/>
    </g>
    <g transform="matrix(0.133306,0,0,0.167457,-237.413,-180.028)">
        <clipPath id="_clip1">
            <rect x="1780.96" y="1075.07" width="2400.49" height="1910.93"/>
        </clipPath>
        <g clip-path="url(#_clip1)">
            <g transform="matrix(1.35494,0,0,1.07862,258.022,-2618.91)">
                <g transform="matrix(0.8,0,0,1.39343,540.293,-78.6883)">
                    <path d="M2722.84,3531.16C2691.49,3555.12 2657.27,3577.78 2620.44,3598.97L1053.36,3598.97C1017.98,3578.62 984.989,3556.9 954.708,3533.95L954.708,3531.16L2722.84,3531.16Z" style="fill:rgb(192,128,54);"/>
                </g>
                <g transform="matrix(6.56525,0,0,6.56525,-3589.86,-3212.74)">
                    <circle cx="852.926" cy="1145.93" r="134.926" style="fill:rgb(192,128,54);"/>
                </g>
            </g>
            <g transform="matrix(4.33984,0,0,4.18402,-13026.6,168.648)">
                <g transform="matrix(5.11811,0,0,5.6357,-1493.51,69.8362)">
                    <path d="M1025,86.5C1025,84.568 1022.85,83 1020.19,83L1004.81,83C1002.15,83 1000,84.568 1000,86.5C1000,88.432 1002.15,90 1004.81,90L1020.19,90C1022.85,90 1025,88.432 1025,86.5Z" style="fill:white;"/>
                </g>
                <g transform="matrix(4.92126,0,0,3.94499,-1542.62,182.414)">
                    <path d="M1067,101.035L1067.03,101.104C1068.77,105.279 1069.02,106.82 1068.1,107.738C1067.72,108.117 1067.44,108.236 1066.94,108.236C1066.31,108.236 1066.28,108.261 1066.08,109C1065.83,109.939 1064.84,111.08 1063.92,111.485C1063.75,111.558 1063.31,111.772 1062.89,111.776C1062.53,111.78 1062.19,111.583 1062.04,111.52C1061.12,111.115 1060.13,109.975 1059.88,109.036C1059.68,108.297 1059.65,108.271 1059.02,108.271C1058.51,108.271 1058.24,108.152 1057.86,107.773C1056.94,106.855 1057.19,105.314 1058.93,101.139L1058.97,101.035L1067,101.035ZM1056.08,101.035C1055.65,101.87 1055.16,102.754 1054.77,103.354C1053.48,105.312 1052.05,106.96 1050.54,108.225C1047.95,110.399 1044.17,111.688 1041.06,111.455C1037.81,111.211 1036.05,108.485 1037.83,106.454C1038.5,105.695 1039.22,105.376 1040.29,105.377C1041.36,105.378 1042.06,105.825 1042.53,106.795C1042.89,107.539 1042.93,107.562 1043.54,107.474C1044.75,107.299 1047.01,106.423 1048.37,105.606C1050.14,104.533 1052.06,102.704 1053.26,101.035L1056.08,101.035ZM1072.72,101.035C1073.93,102.694 1075.83,104.505 1077.59,105.57C1078.95,106.388 1081.21,107.264 1082.42,107.439C1083.03,107.527 1083.07,107.504 1083.42,106.76C1083.89,105.79 1084.6,105.343 1085.67,105.342C1086.74,105.341 1087.46,105.659 1088.13,106.419C1089.91,108.449 1088.15,111.176 1084.9,111.42C1081.79,111.652 1078.01,110.363 1075.41,108.19C1073.91,106.925 1072.48,105.276 1071.19,103.319C1070.8,102.727 1070.32,101.86 1069.9,101.035L1072.72,101.035ZM1024.21,85.802C1025.69,86.174 1026.69,87.058 1027.12,88.378C1027.46,89.457 1027.46,89.923 1027.12,91.083C1026.84,92.033 1025.92,93.117 1025.4,93.117C1025.09,93.117 1025.17,93.379 1025.91,94.645C1026.7,96.002 1028.79,98.019 1030.44,99.035C1033.37,100.834 1036.28,101.547 1040.16,101.414C1043.05,101.316 1044.6,100.965 1046.8,99.917C1048.09,99.306 1048.2,99.277 1047.83,99.656C1047.05,100.434 1044.56,101.796 1042.98,102.301C1040.46,103.109 1038.66,103.381 1035.82,103.385C1033.64,103.388 1033.01,103.323 1031.47,102.947C1027.03,101.854 1023.75,100.072 1021.2,97.364C1019.11,95.142 1018.23,92.95 1018.42,90.437C1018.63,87.647 1020.17,85.902 1022.58,85.716C1023.12,85.674 1023.85,85.713 1024.21,85.802ZM1101.75,85.766C1100.27,86.139 1099.27,87.023 1098.84,88.343C1098.5,89.421 1098.49,89.888 1098.84,91.048C1099.12,91.998 1100.04,93.082 1100.55,93.082C1100.87,93.082 1100.79,93.343 1100.05,94.61C1099.25,95.967 1097.17,97.983 1095.52,99C1092.59,100.799 1089.68,101.512 1085.8,101.379C1082.91,101.28 1081.36,100.93 1079.15,99.882C1077.87,99.271 1077.76,99.241 1078.13,99.621C1078.91,100.398 1081.4,101.761 1082.98,102.266C1085.5,103.074 1087.3,103.346 1090.14,103.349C1092.32,103.352 1092.95,103.288 1094.49,102.911C1098.93,101.819 1102.21,100.036 1104.76,97.328C1106.85,95.107 1107.73,92.915 1107.54,90.402C1107.33,87.612 1105.79,85.866 1103.38,85.68C1102.84,85.639 1102.11,85.677 1101.75,85.766ZM1054.27,89.035C1053.5,85.236 1050.39,81.783 1046.51,80.43C1044.75,79.816 1041.97,79.663 1040.33,80.089C1037.13,80.921 1035.56,82.706 1035.57,85.518C1035.57,87.549 1036.27,89.241 1037.67,90.63L1038.54,91.5L1038.65,90.387C1038.87,88.263 1039.66,87.209 1041.48,86.648C1045.56,85.389 1048.85,88.051 1048.85,92.609C1048.85,96.903 1045.83,99.995 1041.27,100.381C1035.95,100.831 1030.81,97.097 1029.53,91.866C1028.67,88.38 1029.21,84.849 1030.99,82.22C1032.25,80.348 1034.26,78.751 1036.44,77.89C1038.54,77.058 1039.44,76.896 1042.29,76.834C1044.57,76.783 1045.21,76.827 1046.21,77.097C1049.03,77.861 1051,78.951 1053,80.858C1055.45,83.194 1057.01,85.941 1057.64,89.035L1054.27,89.035ZM1068.31,89.035C1068.94,85.927 1070.5,83.168 1072.96,80.823C1074.96,78.916 1076.93,77.826 1079.75,77.061C1080.75,76.792 1081.39,76.748 1083.67,76.798C1086.52,76.861 1087.41,77.023 1089.52,77.854C1091.69,78.716 1093.71,80.313 1094.97,82.185C1096.75,84.814 1097.28,88.344 1096.43,91.831C1095.15,97.062 1090.01,100.795 1084.69,100.346C1080.13,99.959 1077.11,96.868 1077.11,92.574C1077.11,88.016 1080.4,85.353 1084.48,86.613C1086.3,87.173 1087.09,88.227 1087.3,90.352L1087.41,91.465L1088.29,90.594C1089.69,89.206 1090.39,87.514 1090.39,85.482C1090.4,82.671 1088.83,80.886 1085.62,80.053C1083.99,79.627 1081.21,79.781 1079.45,80.395C1075.55,81.752 1072.44,85.222 1071.68,89.035L1068.31,89.035ZM1059.22,89.035L1059.16,88.903C1057.88,86.003 1057.06,83.754 1056.86,82.606C1056.5,80.605 1057.16,79.496 1058.72,79.496L1059.53,79.496L1059.64,78.799C1059.93,76.98 1061.29,75.687 1062.89,75.332L1062.89,75.263C1064.57,75.561 1066.02,76.881 1066.32,78.764L1066.43,79.461L1067.24,79.461C1068.8,79.461 1069.46,80.57 1069.1,82.57C1068.9,83.719 1068.07,85.967 1066.8,88.868L1066.73,89.035L1059.22,89.035ZM1032.5,61.044C1038.56,61.811 1045.33,65.086 1050.84,69.914C1052.95,71.772 1055.53,74.906 1056.9,77.312L1057.36,78.107L1056.72,78.418C1056.37,78.59 1055.93,78.969 1055.73,79.262L1055.38,79.794L1054,78.73C1051.51,76.82 1048.57,75.548 1045.32,74.983C1043.37,74.643 1038.79,74.65 1036.44,74.995C1035.44,75.142 1033.6,75.496 1032.33,75.783C1029.71,76.377 1026.96,76.577 1025.52,76.278C1023.38,75.834 1021.62,74.516 1020.78,72.723C1020.37,71.841 1020.33,71.564 1020.33,69.791C1020.34,67.468 1020.62,66.571 1021.9,64.9C1023.2,63.197 1025.13,61.939 1027.34,61.359C1028.35,61.095 1031.42,60.907 1032.5,61.044ZM1093.46,61.008C1087.4,61.776 1080.63,65.051 1075.12,69.879C1073,71.737 1070.43,74.871 1069.06,77.276L1068.6,78.071L1069.24,78.383C1069.59,78.554 1070.03,78.934 1070.22,79.227L1070.58,79.759L1071.96,78.695C1074.45,76.784 1077.39,75.513 1080.64,74.947C1082.59,74.608 1087.17,74.614 1089.52,74.96C1090.51,75.107 1092.36,75.461 1093.63,75.747C1096.25,76.342 1099,76.541 1100.44,76.243C1102.58,75.798 1104.33,74.48 1105.17,72.688C1105.59,71.806 1105.63,71.529 1105.63,69.756C1105.62,67.433 1105.33,66.536 1104.06,64.865C1102.76,63.161 1100.82,61.904 1098.62,61.324C1097.61,61.059 1094.54,60.871 1093.46,61.008ZM1035.91,33.673C1042.2,35.69 1051.03,45.048 1056,54.978C1058.91,60.798 1060.34,65.984 1060.55,71.516L1060.64,74.177L1060.15,74.581C1059.88,74.803 1059.44,75.227 1059.16,75.524L1058.66,76.063L1058.09,74.076C1057.39,71.612 1055.6,67.95 1054,65.717C1053.37,64.834 1052.04,63.271 1051.06,62.243C1047.5,58.516 1043.81,55.836 1037.44,52.342C1033.32,50.081 1031.58,48.938 1030,47.435C1027.82,45.358 1026.88,43.489 1026.88,41.186C1026.88,38.281 1028.89,34.842 1031.22,33.754C1032.3,33.252 1034.48,33.214 1035.91,33.673ZM1090.05,33.637C1083.76,35.655 1074.93,45.013 1069.96,54.943C1067.05,60.762 1065.62,65.949 1065.41,71.481L1065.31,74.142L1065.81,74.545C1066.08,74.767 1066.52,75.192 1066.8,75.488L1067.3,76.028L1067.87,74.041C1068.57,71.577 1070.36,67.915 1071.96,65.682C1072.59,64.799 1073.91,63.236 1074.9,62.208C1078.46,58.48 1082.15,55.8 1088.52,52.307C1092.64,50.046 1094.37,48.902 1095.96,47.4C1098.14,45.323 1099.08,43.454 1099.08,41.151C1099.08,38.246 1097.07,34.807 1094.73,33.719C1093.66,33.217 1091.48,33.179 1090.05,33.637ZM1059.18,16.164C1060.19,15.438 1061.63,14.845 1062.89,14.839C1064.16,14.834 1065.72,15.373 1066.78,16.129C1069.48,18.061 1071.05,22.177 1071.27,27.87C1071.47,33.186 1070.68,38.432 1068.17,48.473C1065.37,59.684 1064.29,65.373 1063.58,72.491L1063.47,73.609L1063.07,73.609L1063.07,73.644L1062.49,73.644L1062.38,72.527C1061.67,65.408 1060.59,59.719 1057.79,48.508C1055.28,38.467 1054.49,33.221 1054.69,27.906C1054.91,22.212 1056.48,18.096 1059.18,16.164ZM1026.03,50.196C1033.9,51.956 1044.11,58.194 1050.73,65.279C1052.49,67.165 1052.45,67.192 1050.2,65.666C1042.66,60.544 1036.03,57.468 1029.4,56.005C1028.11,55.721 1026.91,55.489 1026.74,55.489C1026.57,55.489 1026.34,55.687 1026.22,55.931C1025.54,57.429 1024.08,58.383 1022.45,58.383C1019.98,58.383 1018.32,56.932 1018.31,54.775C1018.31,52.84 1019.84,50.704 1021.57,50.215C1022.81,49.864 1024.52,49.857 1026.03,50.196ZM1099.93,50.161C1092.06,51.921 1081.85,58.159 1075.23,65.244C1073.47,67.13 1073.51,67.156 1075.75,65.631C1083.3,60.508 1089.93,57.433 1096.56,55.969C1097.85,55.685 1099.04,55.453 1099.22,55.453C1099.39,55.453 1099.62,55.652 1099.73,55.895C1100.42,57.393 1101.88,58.348 1103.51,58.348C1105.98,58.348 1107.64,56.897 1107.64,54.739C1107.65,52.805 1106.12,50.669 1104.39,50.18C1103.15,49.829 1101.44,49.822 1099.93,50.161ZM1040.95,21.16C1044.36,22.795 1049.09,29.27 1051.96,36.249C1053.3,39.51 1055.11,45.15 1055.92,48.64C1056.16,49.644 1056.39,50.619 1056.43,50.806C1056.53,51.245 1056.39,50.939 1054.93,47.656C1051.49,39.876 1047.63,34.017 1042.85,29.295L1041.23,27.705L1040.32,28.172C1038.53,29.083 1036.51,28.713 1035.18,27.23C1033.57,25.437 1033.67,23.402 1035.47,21.825C1037.05,20.433 1038.95,20.203 1040.95,21.16ZM1085.01,21.125C1081.6,22.76 1076.87,29.235 1074,36.213C1072.66,39.475 1070.85,45.115 1070.04,48.605C1069.8,49.609 1069.57,50.584 1069.53,50.771C1069.42,51.21 1069.57,50.904 1071.03,47.621C1074.47,39.841 1078.33,33.982 1083.11,29.26L1084.72,27.67L1085.64,28.137C1087.43,29.047 1089.45,28.678 1090.78,27.194C1092.39,25.402 1092.28,23.366 1090.49,21.789C1088.91,20.398 1087.01,20.167 1085.01,21.125Z" style="fill:white;"/>
                </g>
            </g>
        </g>
    </g>
</svg>
